<?xml version="1.0" standalone="no"?>
<!DOCTYPE svg PUBLIC "-//W3C//DTD SVG 20010904//EN"
 "http://www.w3.org/TR/2001/REC-SVG-20010904/DTD/svg10.dtd">
<svg version="1.0" xmlns="http://www.w3.org/2000/svg"
 width="908.000000pt" height="908.000000pt" viewBox="0 0 908.000000 908.000000"
 preserveAspectRatio="xMidYMid meet">
<metadata>
Created by potrace 1.11, written by Peter Selinger 2001-2013
</metadata>
<g transform="translate(0.000000,908.000000) scale(0.100000,-0.100000)"
fill="#000000" stroke="none">
<path d="M4305 8263 c-198 -15 -307 -27 -405 -44 -1053 -180 -1945 -733 -2550
-1579 -304 -424 -529 -960 -619 -1470 -100 -567 -73 -1097 85 -1655 114 -401
313 -805 562 -1144 158 -215 389 -466 582 -633 712 -616 1616 -948 2580 -948
1228 0 2360 552 3108 1516 336 434 582 981 691 1534 49 249 76 577 67 800 -38
863 -341 1639 -890 2279 -125 145 -324 344 -337 336 -8 -6 -142 -171 -212
-263 -7 -9 28 -51 130 -155 905 -925 1187 -2277 726 -3477 -209 -544 -548
-1014 -1003 -1391 -544 -450 -1186 -719 -1910 -801 -173 -19 -622 -16 -795 6
-1210 152 -2218 852 -2737 1898 -178 359 -293 764 -329 1157 -15 166 -6 582
15 731 61 428 199 829 414 1210 110 194 333 488 512 674 87 91 288 267 395
347 595 444 1278 683 2045 715 303 13 688 -31 1025 -116 110 -28 206 -49 213
-48 16 4 135 287 128 305 -8 19 -53 39 -170 73 -234 68 -521 119 -790 140
-117 9 -433 11 -531 3z"/>
<path d="M6355 7964 c-11 -3 -29 -9 -40 -14 -11 -5 -32 -11 -47 -14 -15 -3
-43 -22 -64 -41 -20 -19 -40 -35 -43 -35 -12 -1 -61 -74 -61 -91 0 -10 -7 -22
-16 -27 -10 -6 -18 -24 -19 -46 -1 -20 -5 -40 -9 -43 -11 -11 -6 -106 8 -158
21 -78 71 -159 92 -151 8 3 11 0 7 -10 -5 -13 7 -18 34 -15 7 1 10 -5 7 -13
-6 -16 42 -46 75 -46 11 0 22 -4 25 -9 9 -14 104 -34 130 -27 14 3 33 14 42
24 17 16 18 16 11 -2 -6 -16 -4 -17 20 -11 15 3 31 12 35 18 4 6 10 8 14 5 19
-19 165 94 156 121 -2 8 0 11 5 8 8 -5 15 6 53 86 17 34 16 200 0 236 -33 71
-46 94 -63 114 -10 12 -25 31 -33 42 -13 17 -16 18 -25 5 -9 -13 -10 -12 -5 2
6 19 -42 53 -104 75 -39 14 -154 25 -185 17z m-65 -38 c0 -5 -69 -46 -76 -46
-8 0 18 23 41 37 21 12 35 16 35 9z m310 -26 c0 -5 -5 -10 -11 -10 -5 0 -7 5
-4 10 3 6 8 10 11 10 2 0 4 -4 4 -10z m-305 -10 c-3 -5 -12 -10 -18 -10 -7 0
-6 4 3 10 19 12 23 12 15 0z m262 4 c-3 -3 -12 -4 -19 -1 -8 3 -5 6 6 6 11 1
17 -2 13 -5z m-387 -70 c0 -8 -5 -12 -10 -9 -6 4 -8 11 -5 16 9 14 15 11 15
-7z m580 -108 c-1 -17 -2 -18 -9 -6 -5 8 -12 26 -15 40 -7 24 -6 24 8 6 9 -11
16 -29 16 -40z m-683 -128 c-3 -8 -6 -5 -6 6 -1 11 2 17 5 13 3 -3 4 -12 1
-19z m10 -60 c-3 -8 -6 -5 -6 6 -1 11 2 17 5 13 3 -3 4 -12 1 -19z m23 -63
c-7 -9 -15 -13 -19 -10 -3 3 1 10 9 15 21 14 24 12 10 -5z m60 -95 c0 -5 -2
-10 -4 -10 -3 0 -8 5 -11 10 -3 6 -1 10 4 10 6 0 11 -4 11 -10z m515 -16 c-17
-18 -31 -18 -16 -1 6 8 8 17 4 21 -4 4 0 4 10 1 14 -6 14 -9 2 -21z m-70 -64
c3 -5 2 -10 -4 -10 -5 0 -13 5 -16 10 -3 6 -2 10 4 10 5 0 13 -4 16 -10z"/>
<path d="M4048 6138 c-22 -6 -53 -28 -81 -57 -76 -80 -77 -90 -77 -586 1 -243
-3 -431 -8 -433 -5 -1 -15 4 -21 12 -7 8 -20 12 -29 9 -15 -4 -15 -3 -2 6 13
9 12 13 -8 27 -12 8 -34 27 -47 42 -18 20 -27 23 -37 14 -11 -9 -18 -7 -31 8
-18 21 -9 28 11 8 6 -6 15 -9 18 -5 4 4 5 8 3 10 -185 137 -311 180 -534 181
-130 1 -157 -3 -295 -46 -71 -22 -97 -38 -63 -38 12 0 24 5 26 10 3 6 4 5 3
-2 -2 -8 -17 -13 -37 -13 -37 0 -101 -33 -66 -34 9 -1 17 4 17 9 0 6 8 10 17
10 14 0 13 -3 -5 -16 -12 -8 -30 -13 -40 -10 -21 7 -44 -8 -133 -92 -68 -64
-163 -203 -161 -234 0 -10 -3 -18 -7 -18 -4 0 -16 -19 -26 -42 -9 -24 -21 -51
-26 -60 -14 -28 -11 -42 6 -28 10 9 15 9 15 1 0 -6 -4 -11 -10 -11 -5 0 -11
-19 -11 -42 l-2 -43 -6 40 -7 40 -8 -35 c-4 -19 -8 -52 -8 -72 0 -21 -4 -35
-9 -32 -5 3 -9 -2 -9 -11 0 -9 4 -14 9 -11 4 3 6 -6 3 -20 -3 -15 -8 -21 -11
-15 -4 6 -8 -74 -9 -177 -1 -201 13 -327 49 -437 31 -95 82 -215 91 -215 4 0
8 -4 8 -9 0 -12 59 -108 84 -138 18 -21 21 -22 38 -6 11 9 18 11 18 5 0 -7 -4
-12 -10 -12 -5 0 -10 -7 -10 -15 0 -8 5 -15 11 -15 5 0 7 5 3 12 -4 7 -3 8 5
4 6 -4 9 -16 6 -27 -6 -18 9 -28 18 -11 2 4 2 1 1 -5 -4 -15 48 -66 85 -85 15
-7 32 -19 39 -25 7 -7 20 -13 28 -13 8 0 14 -3 14 -7 0 -9 48 -33 64 -33 6 0
23 7 39 14 15 8 27 11 27 6 0 -4 -12 -12 -27 -17 -27 -9 -27 -10 -8 -20 72
-38 415 -57 447 -25 6 6 24 12 39 12 15 0 40 5 56 11 l28 12 -25 8 c-19 6 -15
7 13 3 21 -3 44 -1 50 4 7 5 35 22 62 37 104 57 177 128 159 157 -5 7 -3 8 5
4 7 -5 10 -15 6 -25 -3 -9 14 4 39 29 33 32 45 50 41 65 -3 11 -2 15 1 8 3 -8
15 -9 35 -3 28 8 40 -2 19 -15 -15 -9 -12 -82 5 -149 25 -96 91 -157 189 -175
48 -9 64 -8 105 8 61 23 109 65 132 116 21 46 26 80 8 55 -9 -12 -10 -12 -5 3
3 10 7 35 7 55 l2 37 7 -35 c4 -19 7 523 6 1205 l-1 1240 -22 45 c-28 58 -76
103 -93 87 -10 -9 -12 -8 -7 4 11 32 -103 49 -185 27z m77 -9 c-35 -7 -32 -7
20 -5 33 2 52 1 43 -1 -10 -3 -18 -8 -18 -11 0 -4 -22 -5 -50 -4 -27 2 -50 7
-50 11 0 16 15 21 54 20 l41 -2 -40 -8z m-82 -17 c-12 -12 -20 -14 -25 -8 -4
6 0 14 10 18 29 11 33 9 15 -10z m-73 -62 c0 -5 -5 -10 -11 -10 -5 0 -7 5 -4
10 3 6 8 10 11 10 2 0 4 -4 4 -10z m357 -62 c-3 -8 -6 -5 -6 6 -1 11 2 17 5
13 3 -3 4 -12 1 -19z m-10 -90 c-2 -13 -4 -3 -4 22 0 25 2 35 4 23 2 -13 2
-33 0 -45z m-410 -70 c-2 -18 -4 -6 -4 27 0 33 2 48 4 33 2 -15 2 -42 0 -60z
m436 69 c3 -8 1 -20 -4 -28 -6 -10 -9 -7 -9 14 0 29 5 35 13 14z m-1075 -534
c-10 -2 -28 -2 -40 0 -13 2 -5 4 17 4 22 1 32 -1 23 -4z m-115 -20 c-7 -2 -19
-2 -25 0 -7 3 -2 5 12 5 14 0 19 -2 13 -5z m200 0 c-7 -2 -21 -2 -30 0 -10 3
-4 5 12 5 17 0 24 -2 18 -5z m-368 -13 c-3 -5 -17 -10 -30 -10 -13 0 -25 -5
-27 -12 -3 -7 -9 -8 -18 -3 -10 6 -5 12 21 21 43 16 62 17 54 4z m422 4 c-3
-3 -12 -4 -19 -1 -8 3 -5 6 6 6 11 1 17 -2 13 -5z m33 -4 c0 -5 -2 -10 -4 -10
-3 0 -8 5 -11 10 -3 6 -1 10 4 10 6 0 11 -4 11 -10z m-342 -7 c-10 -2 -28 -2
-40 0 -13 2 -5 4 17 4 22 1 32 -1 23 -4z m379 1 c-3 -3 -12 -4 -19 -1 -8 3 -5
6 6 6 11 1 17 -2 13 -5z m-437 -24 c0 -5 -6 -10 -14 -10 -8 0 -18 5 -21 10 -3
6 3 10 14 10 12 0 21 -4 21 -10z m500 6 c0 -3 -4 -8 -10 -11 -5 -3 -10 -1 -10
4 0 6 5 11 10 11 6 0 10 -2 10 -4z m60 -36 c0 -6 10 -15 23 -20 16 -6 17 -9 5
-9 -9 -1 -20 4 -23 9 -3 6 -16 8 -28 6 -12 -1 -16 -1 -9 1 6 3 12 9 12 14 0 5
5 9 10 9 6 0 10 -5 10 -10z m-730 -20 c-8 -5 -18 -6 -24 -3 -5 4 -1 10 10 13
24 9 34 2 14 -10z m-256 -145 c-7 -17 11 -21 19 -5 3 6 4 5 3 -2 -2 -7 -15
-13 -29 -13 -25 -1 -25 0 -10 17 20 22 24 23 17 3z m1303 -7 c-3 -8 -6 -5 -6
6 -1 11 2 17 5 13 3 -3 4 -12 1 -19z m-610 -24 c-3 -3 -12 -4 -19 -1 -8 3 -5
6 6 6 11 1 17 -2 13 -5z m153 -14 c0 -5 -4 -10 -10 -10 -5 0 -10 5 -10 10 0 6
5 10 10 10 6 0 10 -4 10 -10z m-153 -16 c-3 -3 -12 -4 -19 -1 -8 3 -5 6 6 6
11 1 17 -2 13 -5z m123 -43 c59 -10 133 -39 165 -65 11 -9 38 -30 60 -47 72
-55 156 -201 176 -302 5 -28 14 -54 21 -58 7 -4 8 -19 4 -40 -7 -39 2 -101 15
-93 5 3 9 -4 9 -15 0 -12 -5 -21 -11 -21 -8 0 -10 -21 -5 -71 5 -50 4 -69 -3
-64 -7 4 -12 -6 -13 -24 -4 -75 -6 -89 -22 -141 -44 -149 -143 -283 -246 -335
-78 -40 -179 -58 -274 -50 -43 4 -86 10 -95 14 -9 4 -31 15 -49 24 -19 10 -39
14 -44 10 -7 -3 -8 -1 -4 5 4 7 3 12 -3 12 -6 0 -39 27 -75 60 -50 47 -74 80
-107 147 -23 48 -44 106 -47 130 -2 24 -9 46 -13 49 -5 3 -9 32 -9 65 0 32 -3
59 -7 59 -5 0 -9 44 -10 98 0 64 2 90 8 77 6 -14 8 -5 6 33 -1 28 0 52 3 52 3
0 6 8 7 18 3 35 23 112 38 148 8 20 13 45 10 56 -5 13 -2 16 9 12 11 -4 16 -1
16 10 0 19 14 36 95 120 66 69 151 115 225 125 l45 5 -35 7 c-53 11 95 1 160
-10z m-260 -11 c-8 -5 -19 -10 -25 -10 -5 0 -3 5 5 10 8 5 20 10 25 10 6 0 3
-5 -5 -10z m410 -10 c0 -10 -38 -1 -45 10 -2 4 7 5 20 2 14 -2 25 -8 25 -12z
m-1078 -52 c-7 -7 -12 -8 -12 -2 0 14 12 26 19 19 2 -3 -1 -11 -7 -17z m558
-2 c0 -2 -7 -9 -15 -16 -13 -11 -14 -10 -9 4 5 14 24 23 24 12z m-65 -22 c-9
-9 -19 -13 -23 -10 -3 4 0 11 8 16 24 15 33 11 15 -6z m680 5 c11 -16 1 -19
-13 -3 -7 8 -8 14 -3 14 5 0 13 -5 16 -11z m31 -16 c-10 -10 -19 5 -10 18 6
11 8 11 12 0 2 -7 1 -15 -2 -18z m-691 -13 c-3 -5 -11 -10 -16 -10 -6 0 -7 5
-4 10 3 6 11 10 16 10 6 0 7 -4 4 -10z m-43 -46 c-6 -11 -11 -13 -16 -5 -4 6
-2 11 4 11 7 0 9 9 5 23 -5 19 -4 20 5 5 7 -12 8 -24 2 -34z m-525 -6 c-3 -8
-6 -5 -6 6 -1 11 2 17 5 13 3 -3 4 -12 1 -19z m1310 -3 c9 -25 -4 -29 -17 -6
-7 15 -7 21 0 21 6 0 13 -7 17 -15z m-859 -116 c-3 -8 -7 -3 -11 10 -4 17 -3
21 5 13 5 -5 8 -16 6 -23z m-8 -34 c0 -8 -4 -15 -10 -15 -5 0 -7 7 -4 15 4 8
8 15 10 15 2 0 4 -7 4 -15z m-491 -45 c0 -9 -4 -8 -9 5 -5 11 -9 27 -9 35 0 9
4 8 9 -5 5 -11 9 -27 9 -35z m1438 18 c-3 -8 -6 -5 -6 6 -1 11 2 17 5 13 3 -3
4 -12 1 -19z m-1456 -115 c-12 -20 -14 -14 -5 12 4 9 9 14 11 11 3 -2 0 -13
-6 -23z m1496 -45 c-3 -7 -5 -2 -5 12 0 14 2 19 5 13 2 -7 2 -19 0 -25z m30 0
c-3 -7 -5 -2 -5 12 0 14 2 19 5 13 2 -7 2 -19 0 -25z m-40 -40 c-3 -8 -6 -5
-6 6 -1 11 2 17 5 13 3 -3 4 -12 1 -19z m20 0 c-3 -8 -6 -5 -6 6 -1 11 2 17 5
13 3 -3 4 -12 1 -19z m-1520 -130 c-2 -24 -4 -5 -4 42 0 47 2 66 4 43 2 -24 2
-62 0 -85z m471 22 c0 -9 -3 -7 -8 5 -5 11 -8 29 -8 40 0 16 2 15 8 -5 4 -14
8 -32 8 -40z m-458 -150 l-11 -25 6 25 c2 14 5 36 6 50 l2 25 4 -25 c2 -14 -1
-37 -7 -50z m1523 -47 c3 -24 1 -43 -4 -43 -5 0 -9 17 -9 38 0 20 -3 48 -5 62
-5 21 -4 22 3 5 5 -11 12 -39 15 -62z m-36 -10 c-3 -10 -5 -2 -5 17 0 19 2 27
5 18 2 -10 2 -26 0 -35z m-1457 -136 c0 -5 -4 -5 -10 -2 -5 3 -10 14 -10 23 0
15 2 15 10 2 5 -8 10 -19 10 -23z m476 -4 c-10 -10 -19 5 -10 18 6 11 8 11 12
0 2 -7 1 -15 -2 -18z m941 -5 c-3 -8 -6 -5 -6 6 -1 11 2 17 5 13 3 -3 4 -12 1
-19z m-924 -28 c3 -11 1 -20 -4 -20 -5 0 -9 9 -9 20 0 11 2 20 4 20 2 0 6 -9
9 -20z m-473 -10 c0 -5 -4 -10 -10 -10 -5 0 -10 5 -10 10 0 6 5 10 10 10 6 0
10 -4 10 -10z m1390 0 c0 -5 -4 -10 -10 -10 -5 0 -10 5 -10 10 0 6 5 10 10 10
6 0 10 -4 10 -10z m-1369 -70 c5 0 9 8 9 17 0 9 2 14 5 11 4 -3 3 -18 -1 -33
-7 -26 -8 -27 -20 -10 -8 11 -13 30 -13 44 2 26 2 26 6 -1 2 -16 9 -28 14 -28z
m479 29 c0 -5 -4 -9 -10 -9 -5 0 -10 7 -10 16 0 8 5 12 10 9 6 -3 10 -10 10
-16z m879 -24 c0 -5 -4 -3 -9 5 -5 8 -9 22 -9 30 0 16 17 -16 18 -35z m18 23
c-3 -8 -6 -5 -6 6 -1 11 2 17 5 13 3 -3 4 -12 1 -19z m-847 -79 c0 -5 -4 -9
-10 -9 -5 0 -10 7 -10 16 0 8 5 12 10 9 6 -3 10 -10 10 -16z m-500 -25 c0 -8
-4 -12 -10 -9 -5 3 -10 10 -10 16 0 5 5 9 10 9 6 0 10 -7 10 -16z m606 -65 c4
-8 1 -8 -14 0 -12 6 -24 16 -28 22 -4 8 -1 8 14 0 12 -6 24 -16 28 -22z m-546
-23 c0 -3 -4 -8 -10 -11 -5 -3 -10 -1 -10 4 0 6 5 11 10 11 6 0 10 -2 10 -4z
m533 -16 c-3 -11 -7 -20 -9 -20 -2 0 -4 9 -4 20 0 11 4 20 9 20 5 0 7 -9 4
-20z m64 4 c-3 -3 -12 -4 -19 -1 -8 3 -5 6 6 6 11 1 17 -2 13 -5z m50 -20 c-3
-3 -12 -4 -19 -1 -8 3 -5 6 6 6 11 1 17 -2 13 -5z m376 -1 c-7 -2 -19 -2 -25
0 -7 3 -2 5 12 5 14 0 19 -2 13 -5z m-275 -22 c11 -7 10 -9 -3 -14 -9 -4 -14
-3 -10 2 3 5 -1 12 -7 14 -7 3 -8 6 -3 6 6 0 16 -3 23 -8z m-85 -8 c-7 -2 -19
-2 -25 0 -7 3 -2 5 12 5 14 0 19 -2 13 -5z m247 -3 c-8 -5 -19 -10 -25 -10 -5
0 -3 5 5 10 8 5 20 10 25 10 6 0 3 -5 -5 -10z m97 4 c-3 -3 -12 -4 -19 -1 -8
3 -5 6 6 6 11 1 17 -2 13 -5z m-937 -54 c0 -5 -2 -10 -4 -10 -3 0 -8 5 -11 10
-3 6 -1 10 4 10 6 0 11 -4 11 -10z m1182 -22 c-7 -7 -12 -8 -12 -2 0 6 3 14 7
17 3 4 9 5 12 2 2 -3 -1 -11 -7 -17z m-1092 -38 c0 -5 -4 -10 -10 -10 -5 0
-10 5 -10 10 0 6 5 10 10 10 6 0 10 -4 10 -10z m1217 -37 c-3 -10 -5 -4 -5 12
0 17 2 24 5 18 2 -7 2 -21 0 -30z m-1162 -43 c3 -5 1 -10 -4 -10 -6 0 -11 5
-11 10 0 6 2 10 4 10 3 0 8 -4 11 -10z m905 6 c0 -3 -4 -8 -10 -11 -5 -3 -10
-1 -10 4 0 6 5 11 10 11 6 0 10 -2 10 -4z m-860 -36 c0 -5 -2 -10 -4 -10 -3 0
-8 5 -11 10 -3 6 -1 10 4 10 6 0 11 -4 11 -10z m582 -37 c-6 -2 -10 -9 -6 -14
3 -5 0 -9 -5 -9 -6 0 -11 7 -11 15 0 8 8 15 18 14 10 0 12 -3 4 -6z m598 -13
c6 -11 9 -20 7 -20 -2 0 -12 9 -22 20 -10 11 -13 20 -7 20 6 0 16 -9 22 -20z
m-1080 -4 c0 -11 -19 -15 -25 -6 -3 5 1 10 9 10 9 0 16 -2 16 -4z m457 -62
c-3 -3 -12 -4 -19 -1 -8 3 -5 6 6 6 11 1 17 -2 13 -5z m816 -11 c-7 -2 -21 -2
-30 0 -10 3 -4 5 12 5 17 0 24 -2 18 -5z"/>
<path d="M5353 6131 c-58 -15 -182 -101 -145 -101 6 0 14 5 17 10 3 6 12 10
18 10 7 0 3 -7 -7 -15 -20 -15 -20 -15 0 -30 25 -19 10 -19 -20 0 -23 15 -24
14 -46 -22 -21 -34 -23 -51 -23 -153 l0 -115 -7 85 -6 85 -5 -125 c-2 -69 -4
-179 -4 -245 l0 -120 -25 -3 c-109 -11 -210 -57 -202 -93 1 -9 -6 -27 -17 -40
-11 -13 -20 -19 -21 -13 0 6 7 17 15 24 17 14 20 30 6 30 -18 0 -51 -99 -51
-152 0 -37 3 -48 10 -38 5 8 12 11 16 7 4 -3 2 -13 -5 -21 -28 -34 48 -123
135 -155 30 -12 77 -21 104 -21 l50 0 -2 -82 c-1 -71 -2 -77 -8 -38 -4 25 -8
-160 -8 -410 -1 -250 2 -450 6 -443 4 6 6 -23 4 -65 -2 -43 1 -111 7 -152 7
-41 14 -90 16 -107 11 -70 54 -164 103 -223 2 -3 11 4 19 15 12 16 14 16 10 3
-4 -11 0 -21 11 -27 9 -5 13 -13 9 -17 -4 -4 -14 1 -22 12 -8 10 -15 14 -15 7
-1 -31 143 -116 227 -134 129 -27 167 -31 308 -26 195 7 350 47 411 105 12 12
24 18 27 15 3 -3 22 21 43 52 33 52 36 65 37 129 1 71 -8 96 -52 149 -11 14
-16 15 -23 5 -6 -9 -8 -7 -6 7 5 32 -72 66 -144 63 -63 -2 -70 -8 -35 -27 13
-7 15 -9 4 -6 -10 3 -25 5 -33 5 -9 0 -12 5 -8 11 5 9 -2 10 -22 5 -73 -16
-175 -19 -200 -5 -53 28 -53 24 -54 610 -1 299 -1 550 -1 557 1 8 23 12 77 12
83 0 203 29 224 55 7 8 19 15 27 15 8 0 11 4 8 10 -3 5 0 7 7 5 17 -7 48 45
48 79 0 14 5 26 10 26 14 0 12 83 -2 117 -29 66 -59 101 -81 96 -17 -4 -19 -2
-8 5 11 8 5 15 -28 31 -32 17 -67 23 -144 27 -163 8 -148 -6 -141 137 11 229
-25 476 -72 494 -8 3 -14 12 -14 20 0 10 -6 12 -20 8 -12 -4 -27 -1 -35 5 -8
6 -19 9 -25 5 -5 -3 -10 -2 -10 4 0 19 23 24 35 8 7 -10 18 -17 25 -17 22 0
-10 30 -61 56 -53 26 -162 39 -216 25z m87 -5 c0 -11 -19 -15 -25 -6 -3 5 1
10 9 10 9 0 16 -2 16 -4z m-80 -14 c0 -8 -58 -32 -76 -32 -7 0 55 33 74 39 1
1 2 -3 2 -7z m-16 -47 c-12 -9 -14 -14 -6 -15 14 0 7 -20 -7 -20 -12 0 -9 34
3 42 21 14 30 8 10 -7z m124 -12 c-10 -2 -28 -2 -40 0 -13 2 -5 4 17 4 22 1
32 -1 23 -4z m99 -60 c35 -33 54 -60 62 -88 5 -22 11 -158 12 -305 0 -146 3
-275 6 -287 5 -23 8 -23 157 -23 115 0 158 -4 180 -15 16 -9 37 -13 46 -10 10
3 20 0 23 -9 4 -10 0 -12 -16 -9 -21 5 -21 5 -3 -9 24 -19 33 -97 16 -139 -23
-56 -80 -73 -252 -77 l-147 -4 -6 -53 c-4 -29 -5 -298 -2 -597 4 -474 7 -550
22 -595 9 -29 20 -53 25 -53 5 0 11 -9 15 -20 3 -10 31 -31 61 -46 50 -25 62
-26 137 -21 45 3 95 10 110 16 34 13 147 15 147 2 0 -5 8 -11 18 -13 29 -8 55
-74 48 -120 -8 -51 -28 -80 -74 -110 -38 -25 -131 -58 -162 -58 -10 0 -27 -3
-37 -7 -16 -6 -15 -8 7 -15 22 -7 21 -7 -5 -3 -16 3 -113 7 -215 10 -243 6
-260 7 -260 20 0 5 -19 19 -43 29 -86 41 -160 135 -182 235 -7 32 -8 34 -21
16 -8 -10 -17 -15 -21 -11 -4 4 -1 11 7 16 9 5 14 26 14 57 1 26 0 334 -2 684
l-2 636 -97 2 c-113 2 -177 25 -195 70 -18 47 -17 91 3 128 11 19 17 38 14 44
-3 5 1 6 9 3 8 -3 28 2 45 10 21 11 58 16 119 16 85 0 90 1 96 23 10 39 7 494
-4 477 -5 -8 -10 -10 -10 -4 0 5 4 14 9 20 13 14 22 104 11 104 -6 0 -10 5
-10 11 0 6 6 9 12 7 23 -8 51 40 44 75 -5 27 -5 29 6 14 12 -16 15 -16 53 3
28 14 59 20 110 20 71 0 71 0 122 -47z m7 31 c5 -14 4 -15 -9 -4 -17 14 -19
20 -6 20 5 0 12 -7 15 -16z m116 -59 c0 -5 -5 -3 -10 5 -5 8 -10 20 -10 25 0
6 5 3 10 -5 5 -8 10 -19 10 -25z m-480 16 c0 -5 -5 -11 -11 -13 -9 -3 -9 -10
0 -27 7 -12 10 -25 7 -28 -8 -9 -28 48 -22 64 6 15 26 18 26 4z m50 -15 c0
-11 -19 -15 -25 -6 -3 5 1 10 9 10 9 0 16 -2 16 -4z m-91 -95 c1 -35 -5 -22
-12 24 -5 28 -4 34 3 20 5 -11 9 -31 9 -44z m508 17 c-3 -7 -5 -2 -5 12 0 14
2 19 5 13 2 -7 2 -19 0 -25z m20 0 c-3 -8 -6 -5 -6 6 -1 11 2 17 5 13 3 -3 4
-12 1 -19z m20 -70 c-2 -13 -4 -3 -4 22 0 25 2 35 4 23 2 -13 2 -33 0 -45z
m-510 30 c-3 -8 -6 -5 -6 6 -1 11 2 17 5 13 3 -3 4 -12 1 -19z m456 7 c-3 -9
-8 -14 -10 -11 -3 3 -2 9 2 15 9 16 15 13 8 -4z m-486 -117 c-2 -13 -4 -3 -4
22 0 25 2 35 4 23 2 -13 2 -33 0 -45z m16 -164 c-6 -154 -8 -171 -15 -119 -5
36 -4 92 2 139 5 44 10 99 10 124 0 25 2 43 5 41 2 -3 2 -86 -2 -185z m20
-255 c-5 -5 -6 85 -3 199 l5 207 3 -199 c1 -110 -1 -203 -5 -207z m484 199
c-2 -24 -4 -5 -4 42 0 47 2 66 4 43 2 -24 2 -62 0 -85z m-560 -20 c-2 -13 -4
-3 -4 22 0 25 2 35 4 23 2 -13 2 -33 0 -45z m590 -85 c-3 -10 -5 -4 -5 12 0
17 2 24 5 18 2 -7 2 -21 0 -30z m-660 -49 c-3 -3 -12 -4 -19 -1 -8 3 -5 6 6 6
11 1 17 -2 13 -5z m886 -1 c-7 -2 -19 -2 -25 0 -7 3 -2 5 12 5 14 0 19 -2 13
-5z m67 -16 c11 -5 9 -6 -4 -4 -11 1 -21 9 -23 17 -3 10 -2 11 4 4 4 -6 15
-14 23 -17z m-1060 -27 c0 -5 -2 -10 -4 -10 -3 0 -8 5 -11 10 -3 6 -1 10 4 10
6 0 11 -4 11 -10z m160 0 c0 -5 -4 -10 -10 -10 -5 0 -10 5 -10 10 0 6 5 10 10
10 6 0 10 -4 10 -10z m-85 -10 c-3 -5 -14 -10 -23 -9 -14 0 -13 2 3 9 27 11
27 11 20 0z m968 -14 c4 -10 1 -13 -8 -9 -8 3 -12 9 -9 14 7 12 11 11 17 -5z
m37 10 c0 -3 -4 -8 -10 -11 -5 -3 -10 -1 -10 4 0 6 5 11 10 11 6 0 10 -2 10
-4z m42 -33 c-5 -24 -6 -25 -12 -8 -8 21 -4 35 9 35 5 0 6 -12 3 -27z m-1148
2 c-4 -8 -11 -15 -16 -15 -6 0 -5 6 2 15 7 8 14 15 16 15 2 0 1 -7 -2 -15z
m-4 -47 c-16 -18 -23 -19 -33 -9 -9 10 -9 11 4 6 10 -4 19 0 22 9 4 9 11 16
17 16 6 0 2 -10 -10 -22z m1194 7 c-4 -8 -8 -15 -10 -15 -2 0 -4 7 -4 15 0 8
4 15 10 15 5 0 7 -7 4 -15z m-34 -46 c0 -6 -4 -7 -10 -4 -5 3 -10 11 -10 16 0
6 5 7 10 4 6 -3 10 -11 10 -16z m-1231 4 c0 -5 -4 -17 -9 -28 -8 -18 -9 -17
-9 8 -1 15 4 27 9 27 6 0 10 -3 9 -7z m26 -3 c3 -5 1 -10 -4 -10 -6 0 -11 5
-11 10 0 6 2 10 4 10 3 0 8 -4 11 -10z m1192 -72 c-3 -8 -6 -5 -6 6 -1 11 2
17 5 13 3 -3 4 -12 1 -19z m-1157 -20 c0 -19 -2 -20 -10 -8 -13 19 -13 30 0
30 6 0 10 -10 10 -22z m-30 -14 c0 -8 -5 -12 -11 -8 -8 4 -9 -1 -4 -17 7 -23
7 -23 -8 -4 -13 17 -13 21 2 32 21 16 21 16 21 -3z m1191 -41 c-12 -20 -14
-14 -5 12 4 9 9 14 11 11 3 -2 0 -13 -6 -23z m29 -4 c-7 -11 -14 -18 -17 -15
-3 3 0 12 7 21 18 21 23 19 10 -6z m-73 -5 c-3 -3 -12 -4 -19 -1 -8 3 -5 6 6
6 11 1 17 -2 13 -5z m-29 -24 c7 -12 8 -20 2 -20 -5 0 -10 5 -10 10 0 6 -7 10
-16 10 -8 0 -12 5 -9 10 9 15 19 12 33 -10z m-73 -6 c-19 -15 -18 -15 20 -10
37 6 38 5 12 -5 -15 -6 -34 -8 -42 -5 -19 7 -8 36 14 36 13 -1 13 -3 -4 -16z
m-835 2 c0 -2 -16 -6 -35 -8 -19 -2 -35 0 -35 4 0 4 16 8 35 8 19 0 35 -2 35
-4z m104 -2 c14 -6 16 -56 14 -488 l-3 -481 -5 480 c-5 471 -5 480 -25 481
-11 0 -24 -3 -30 -7 -5 -4 -16 -1 -23 7 -11 12 -7 14 22 14 19 0 41 -3 50 -6z
m613 -1 c-4 -4 -36 -6 -71 -5 -54 2 -65 -1 -69 -16 -4 -13 -5 -11 -6 6 -1 21
2 22 76 22 42 0 73 -3 70 -7z m56 0 c-7 -2 -19 -2 -25 0 -7 3 -2 5 12 5 14 0
19 -2 13 -5z m-798 -54 l50 -8 -57 4 c-31 2 -65 9 -75 15 -15 9 -14 10 7 4 13
-4 47 -10 75 -15z m872 5 c-3 -3 -12 -4 -19 -1 -8 3 -5 6 6 6 11 1 17 -2 13
-5z m-157 -14 c12 -8 11 -10 -7 -10 -13 0 -23 5 -23 10 0 13 11 13 30 0z
m-133 -142 c-2 -24 -4 -5 -4 42 0 47 2 66 4 43 2 -24 2 -62 0 -85z m70 100
c-3 -8 -6 -5 -6 6 -1 11 2 17 5 13 3 -3 4 -12 1 -19z m12 -102 c1 -55 -5 -42
-12 24 -3 34 -2 47 3 35 5 -11 9 -38 9 -59z m-41 -402 l-3 -439 -5 447 c-3
246 -2 444 3 439 4 -4 6 -205 5 -447z m-506 -399 c3 -66 2 -106 -2 -90 -8 30
-13 222 -6 214 2 -2 5 -58 8 -124z m525 -47 c-2 -18 -4 -4 -4 32 0 36 2 50 4
33 2 -18 2 -48 0 -65z m20 30 c-2 -13 -4 -3 -4 22 0 25 2 35 4 23 2 -13 2 -33
0 -45z m-47 -105 c-11 -17 -11 -17 -6 0 3 10 7 26 7 35 1 15 2 15 6 0 2 -10
-1 -25 -7 -35z m-520 17 c0 -5 -4 -10 -10 -10 -5 0 -10 -12 -11 -27 0 -16 -3
-22 -6 -15 -7 18 5 62 17 62 6 0 10 -4 10 -10z m7 -107 c-2 -16 -4 -3 -4 27 0
30 2 43 4 28 2 -16 2 -40 0 -55z m530 25 c-3 -7 -5 -2 -5 12 0 14 2 19 5 13 2
-7 2 -19 0 -25z m-484 -83 c5 -28 4 -34 -3 -20 -8 19 -14 73 -6 64 2 -2 6 -22
9 -44z m464 23 c-3 -8 -6 -5 -6 6 -1 11 2 17 5 13 3 -3 4 -12 1 -19z m-490
-30 c-3 -7 -5 -2 -5 12 0 14 2 19 5 13 2 -7 2 -19 0 -25z m613 2 c7 0 10 -3 7
-7 -9 -8 -57 17 -57 30 0 6 8 3 18 -6 10 -10 25 -17 32 -17z m350 20 c0 -5 10
-11 23 -11 12 -1 15 -3 7 -5 -8 -3 -35 2 -60 10 l-45 14 38 1 c20 1 37 -3 37
-9z m-111 -26 c10 -9 -45 -3 -59 6 -11 7 -5 8 20 4 19 -4 37 -8 39 -10z m-102
0 c-3 -3 -12 -4 -19 -1 -8 3 -5 6 6 6 11 1 17 -2 13 -5z m-767 -47 c0 -10 -4
-15 -10 -12 -5 3 -10 18 -10 33 0 21 2 24 10 12 5 -8 10 -23 10 -33z m595 5
c-6 -7 -45 19 -45 29 0 5 11 2 24 -8 13 -10 23 -19 21 -21z m42 12 c-3 -3 -12
-4 -19 -1 -8 3 -5 6 6 6 11 1 17 -2 13 -5z m338 -4 c3 -5 -1 -10 -9 -10 -9 0
-16 5 -16 10 0 6 4 10 9 10 6 0 13 -4 16 -10z m-340 -20 c3 -5 -1 -10 -10 -10
-9 0 -13 5 -10 10 3 6 8 10 10 10 2 0 7 -4 10 -10z m437 -17 c-3 -16 -7 -22
-10 -15 -4 13 4 42 11 42 2 0 2 -12 -1 -27z m-21 -19 c5 -15 8 -29 5 -31 -2
-3 -7 6 -11 19 -4 13 -13 26 -19 30 -8 5 -7 8 2 8 7 0 17 -12 23 -26z m52 6
c-3 -11 -7 -20 -9 -20 -2 0 -4 9 -4 20 0 11 4 20 9 20 5 0 7 -9 4 -20z m-1100
-12 c9 -31 2 -33 -11 -3 -6 14 -8 25 -3 25 5 0 11 -10 14 -22z m67 -41 c0 -18
-2 -19 -10 -7 -13 20 -13 43 0 35 6 -3 10 -16 10 -28z m1060 13 c0 -5 -2 -10
-4 -10 -3 0 -8 5 -11 10 -3 6 -1 10 4 10 6 0 11 -4 11 -10z m-45 -10 c3 -5 1
-10 -4 -10 -6 0 -11 5 -11 10 0 6 2 10 4 10 3 0 8 -4 11 -10z m52 -42 c-3 -7
-5 -2 -5 12 0 14 2 19 5 13 2 -7 2 -19 0 -25z m-1107 13 c0 -5 2 -24 5 -42 l5
-34 -14 35 c-18 43 -19 50 -6 50 6 0 10 -4 10 -9z m57 -13 c-3 -8 -6 -5 -6 6
-1 11 2 17 5 13 3 -3 4 -12 1 -19z m980 0 c-3 -8 -6 -5 -6 6 -1 11 2 17 5 13
3 -3 4 -12 1 -19z m-957 -49 c0 -5 -4 -9 -10 -9 -5 0 -10 7 -10 16 0 8 5 12
10 9 6 -3 10 -10 10 -16z m954 -24 c5 -22 4 -26 -4 -15 -5 8 -10 24 -10 34 0
26 6 18 14 -19z m26 20 c0 -8 -4 -15 -10 -15 -5 0 -10 7 -10 15 0 8 5 15 10
15 6 0 10 -7 10 -15z m9 -55 c-34 -55 -45 -65 -54 -50 -3 5 1 10 9 10 9 0 16
5 16 12 0 11 47 78 55 78 3 0 -9 -22 -26 -50z m-909 -34 c0 -8 -3 -7 -8 0 -4
6 -17 16 -29 23 -13 6 -23 16 -23 22 0 5 14 0 30 -13 17 -12 30 -27 30 -32z
m-100 34 c0 -5 -4 -10 -10 -10 -5 0 -10 5 -10 10 0 6 5 10 10 10 6 0 10 -4 10
-10z m60 -30 c0 -5 -2 -10 -4 -10 -3 0 -8 5 -11 10 -3 6 -1 10 4 10 6 0 11 -4
11 -10z m10 -40 c0 -5 -4 -10 -10 -10 -5 0 -10 5 -10 10 0 6 5 10 10 10 6 0
10 -4 10 -10z m100 0 c0 -5 -4 -10 -10 -10 -5 0 -10 5 -10 10 0 6 5 10 10 10
6 0 10 -4 10 -10z m707 4 c-3 -3 -12 -4 -19 -1 -8 3 -5 6 6 6 11 1 17 -2 13
-5z m53 2 c0 -18 -15 -36 -31 -36 -17 0 -18 3 -7 20 11 17 38 28 38 16z m-135
-26 c-3 -5 -13 -10 -21 -10 -8 0 -12 5 -9 10 3 6 13 10 21 10 8 0 12 -4 9 -10z
m-675 -4 c0 -3 -4 -8 -10 -11 -5 -3 -10 -1 -10 4 0 6 5 11 10 11 6 0 10 -2 10
-4z m165 -6 c13 -5 14 -9 5 -9 -8 0 -24 4 -35 9 -13 5 -14 9 -5 9 8 0 24 -4
35 -9z m-138 -16 c-3 -3 -12 -4 -19 -1 -8 3 -5 6 6 6 11 1 17 -2 13 -5z m241
-1 c-10 -2 -28 -2 -40 0 -13 2 -5 4 17 4 22 1 32 -1 23 -4z m422 3 c0 -2 -13
-6 -30 -8 -16 -3 -30 -1 -30 4 0 4 14 8 30 8 17 0 30 -2 30 -4z m-7 -33 c-7
-2 -19 -2 -25 0 -7 3 -2 5 12 5 14 0 19 -2 13 -5z"/>
</g>
</svg>
